HIERARCHY
ROOT Hips
{
  OFFSET 5.84602e-005 68.8428 3.50346
  CHANNELS 6 Xposition Yposition Zposition Zrotation Xrotation Yrotation
  JOINT Spine
  {
    OFFSET 0 8.597 -4.6522
    CHANNELS 3 Zrotation Xrotation Yrotation
    JOINT Spine1
    {
      OFFSET 0 7.8454 0.4098
      CHANNELS 3 Zrotation Xrotation Yrotation
      JOINT Spine2
      {
        OFFSET 0 9.7078 -2.1609
        CHANNELS 3 Zrotation Xrotation Yrotation
        JOINT Neck
        {
          OFFSET 0 21.8761 -0.4549
          CHANNELS 3 Zrotation Xrotation Yrotation
          JOINT Head
          {
            OFFSET 0 12.3537 3.3602
            CHANNELS 3 Zrotation Xrotation Yrotation
            End Site
            {
              OFFSET 0.0001 18.9506 0.5657
            }
          }
        }
        JOINT LeftShoulder
        {
          OFFSET 2.2086 21.1115 7.2329
          CHANNELS 3 Zrotation Xrotation Yrotation
          JOINT LeftArm
          {
            OFFSET 13.1193 3.0282 -4.8998
            CHANNELS 3 Zrotation Xrotation Yrotation
            JOINT LeftForeArm
            {
              OFFSET 27.4081 -0.0973053 -0.2375
              CHANNELS 3 Zrotation Xrotation Yrotation
              JOINT LeftHand
              {
                OFFSET 22.8641 0.0662994 -0.1369
                CHANNELS 3 Zrotation Xrotation Yrotation
                JOINT LeftHandIndex1
                {
                  OFFSET 8.8614 0.775009 2.4612
                  CHANNELS 3 Zrotation Xrotation Yrotation
                  JOINT LeftHandIndex2
                  {
                    OFFSET 3.3146 -0.808304 0.5841
                    CHANNELS 3 Zrotation Xrotation Yrotation
                    JOINT LeftHandIndex3
                    {
                      OFFSET 2.2628 -0.552002 0.3989
                      CHANNELS 3 Zrotation Xrotation Yrotation
                      End Site
                      {
                        OFFSET 1.6102 -0.4807 0.2612
                      }
                    }
                  }
                }
                JOINT LeftHandMiddle1
                {
                  OFFSET 8.9937 0.895004 0.2143
                  CHANNELS 3 Zrotation Xrotation Yrotation
                  JOINT LeftHandMiddle2
                  {
                    OFFSET 4.0984 0.0113983 -0.0242
                    CHANNELS 3 Zrotation Xrotation Yrotation
                    JOINT LeftHandMiddle3
                    {
                      OFFSET 2.2716 0.00689697 -0.0138001
                      CHANNELS 3 Zrotation Xrotation Yrotation
                      End Site
                      {
                        OFFSET 2.0404 -0.1441 0.0027
                      }
                    }
                  }
                }
                JOINT LeftHandRing1
                {
                  OFFSET 8.5234 0.597198 -2.0164
                  CHANNELS 3 Zrotation Xrotation Yrotation
                  JOINT LeftHandRing2
                  {
                    OFFSET 3.7188 -0.188293 -0.2328
                    CHANNELS 3 Zrotation Xrotation Yrotation
                    JOINT LeftHandRing3
                    {
                      OFFSET 2.1191 -0.106598 -0.1332
                      CHANNELS 3 Zrotation Xrotation Yrotation
                      End Site
                      {
                        OFFSET 1.8737 -0.2304 -0.0886
                      }
                    }
                  }
                }
                JOINT LeftHandPinky1
                {
                  OFFSET 7.9094 -0.601089 -3.4825
                  CHANNELS 3 Zrotation Xrotation Yrotation
                  JOINT LeftHandPinky2
                  {
                    OFFSET 2.2874 -0.477005 -0.6314
                    CHANNELS 3 Zrotation Xrotation Yrotation
                    JOINT LeftHandPinky3
                    {
                      OFFSET 1.6774 -0.349396 -0.4633
                      CHANNELS 3 Zrotation Xrotation Yrotation
                      End Site
                      {
                        OFFSET 1.4888 -0.4091 -0.3416
                      }
                    }
                  }
                }
                JOINT LeftHandThumb1
                {
                  OFFSET 1.833 -1.3875 1.3896
                  CHANNELS 3 Zrotation Xrotation Yrotation
                  JOINT LeftHandThumb2
                  {
                    OFFSET 3.4129 -1.121 2.5732
                    CHANNELS 3 Zrotation Xrotation Yrotation
                    JOINT LeftHandThumb3
                    {
                      OFFSET 2.2474 -0.804199 1.6192
                      CHANNELS 3 Zrotation Xrotation Yrotation
                      End Site
                      {
                        OFFSET 1.6527 -0.5689 1.1317
                      }
                    }
                  }
                }
              }
            }
          }
        }
        JOINT RightShoulder
        {
          OFFSET -2.2086 21.1115 7.2329
          CHANNELS 3 Zrotation Xrotation Yrotation
          JOINT RightArm
          {
            OFFSET -13.1216 3.0287 -4.9007
            CHANNELS 3 Zrotation Xrotation Yrotation
            JOINT RightForeArm
            {
              OFFSET -27.4081 -0.0973053 -0.2375
              CHANNELS 3 Zrotation Xrotation Yrotation
              JOINT RightHand
              {
                OFFSET -22.8641 0.0664063 -0.1369
                CHANNELS 3 Zrotation Xrotation Yrotation
                JOINT RightHandIndex1
                {
                  OFFSET -8.8614 0.774994 2.4612
                  CHANNELS 3 Zrotation Xrotation Yrotation
                  JOINT RightHandIndex2
                  {
                    OFFSET -3.3146 -0.808304 0.5841
                    CHANNELS 3 Zrotation Xrotation Yrotation
                    JOINT RightHandIndex3
                    {
                      OFFSET -2.2628 -0.552002 0.3989
                      CHANNELS 3 Zrotation Xrotation Yrotation
                      End Site
                      {
                        OFFSET -1.6102 -0.4807 0.2612
                      }
                    }
                  }
                }
                JOINT RightHandMiddle1
                {
                  OFFSET -8.9937 0.894989 0.2143
                  CHANNELS 3 Zrotation Xrotation Yrotation
                  JOINT RightHandMiddle2
                  {
                    OFFSET -4.0984 0.0113983 -0.0242
                    CHANNELS 3 Zrotation Xrotation Yrotation
                    JOINT RightHandMiddle3
                    {
                      OFFSET -2.2716 0.00691223 -0.0138001
                      CHANNELS 3 Zrotation Xrotation Yrotation
                      End Site
                      {
                        OFFSET -2.0404 -0.1441 0.0027
                      }
                    }
                  }
                }
                JOINT RightHandRing1
                {
                  OFFSET -8.5234 0.597198 -2.0164
                  CHANNELS 3 Zrotation Xrotation Yrotation
                  JOINT RightHandRing2
                  {
                    OFFSET -3.7188 -0.188309 -0.2328
                    CHANNELS 3 Zrotation Xrotation Yrotation
                    JOINT RightHandRing3
                    {
                      OFFSET -2.1191 -0.106598 -0.1332
                      CHANNELS 3 Zrotation Xrotation Yrotation
                      End Site
                      {
                        OFFSET -1.8737 -0.2304 -0.0886
                      }
                    }
                  }
                }
                JOINT RightHandPinky1
                {
                  OFFSET -7.9094 -0.601105 -3.4825
                  CHANNELS 3 Zrotation Xrotation Yrotation
                  JOINT RightHandPinky2
                  {
                    OFFSET -2.2874 -0.477005 -0.6314
                    CHANNELS 3 Zrotation Xrotation Yrotation
                    JOINT RightHandPinky3
                    {
                      OFFSET -1.6774 -0.349396 -0.4633
                      CHANNELS 3 Zrotation Xrotation Yrotation
                      End Site
                      {
                        OFFSET -1.4888 -0.4091 -0.3416
                      }
                    }
                  }
                }
                JOINT RightHandThumb1
                {
                  OFFSET -1.833 -1.38751 1.3896
                  CHANNELS 3 Zrotation Xrotation Yrotation
                  JOINT RightHandThumb2
                  {
                    OFFSET -3.41299 -1.12099 2.5732
                    CHANNELS 3 Zrotation Xrotation Yrotation
                    JOINT RightHandThumb3
                    {
                      OFFSET -2.24741 -0.804108 1.6192
                      CHANNELS 3 Zrotation Xrotation Yrotation
                      End Site
                      {
                        OFFSET -1.6527 -0.5689 1.1317
                      }
                    }
                  }
                }
              }
            }
          }
        }
      }
    }
  }
  JOINT RightUpLeg
  {
    OFFSET -9.1966 3.8861 -0.7581
    CHANNELS 3 Zrotation Xrotation Yrotation
    JOINT RightLeg
    {
      OFFSET -0.7359 -41.0265 0
      CHANNELS 3 Zrotation Xrotation Yrotation
      JOINT RightFoot
      {
        OFFSET 0 -40.2855 0
        CHANNELS 3 Zrotation Xrotation Yrotation
        JOINT RightToeBase
        {
          OFFSET 0 -5.6122 11.7359
          CHANNELS 3 Zrotation Xrotation Yrotation
          End Site
          {
            OFFSET 0 0 7.8731
          }
        }
      }
    }
  }
  JOINT LeftUpLeg
  {
    OFFSET 9.1965 3.8864 -0.7581
    CHANNELS 3 Zrotation Xrotation Yrotation
    JOINT LeftLeg
    {
      OFFSET 0.7359 -41.0268 0
      CHANNELS 3 Zrotation Xrotation Yrotation
      JOINT LeftFoot
      {
        OFFSET 0 -40.2855 0
        CHANNELS 3 Zrotation Xrotation Yrotation
        JOINT LeftToeBase
        {
          OFFSET 0 -5.6122 11.7359
          CHANNELS 3 Zrotation Xrotation Yrotation
          End Site
          {
            OFFSET 0 0 7.8731
          }
        }
      }
    }
  }
}
MOTION
Frames:	6
Frame Time:	0.0333333
39.7364 37.0709 22.5104 -179.996 51.0054 8.95158e-011 -0.172729 -1.95772 0.134978 -0.341138 -3.91577 0.264279 -0.341138 -3.91578 0.264278 -4.26823e-006 15.9931 3.15241e-006 8.01708e-008 21.341 -3.11418e-007 6.16072 1.44708 17.8844 -16.3097 57.9632 27.8322 32.0965 48.6369 -73.317 0.559464 -1.45496 8.28397 -3.81985e-007 -1.55653e-007 1.0799e-007 3.81985e-007 1.55653e-007 -1.0799e-007 3.81985e-007 1.55653e-007 -1.0799e-007 -3.81985e-007 -1.55653e-007 1.0799e-007 -0.0146113 -8.81269e-005 4.01829e-006 3.81982e-007 1.55667e-007 -1.07971e-007 -3.81985e-007 -1.55653e-007 1.0799e-007 -0.0187673 -0.00117831 6.19013e-005 3.81981e-007 1.5567e-007 -1.07969e-007 -3.81985e-007 -1.55653e-007 1.0799e-007 -0.0122491 -0.00324186 0.000676304 3.81981e-007 1.55662e-007 -1.07984e-007 -3.81985e-007 -1.55653e-007 1.0799e-007 3.81985e-007 1.55653e-007 -1.0799e-007 3.81985e-007 1.55653e-007 -1.0799e-007 -6.18127 1.45131 -17.9018 20.0248 56.9874 -32.3561 -32.116 48.6231 73.3074 -0.57333 -1.45399 -8.27714 -7.63497e-007 3.0451e-007 2.24554e-007 3.18055e-015 -1.27222e-014 -3.18055e-015 -7.63498e-007 3.0451e-007 2.24554e-007 -7.63497e-007 3.0451e-007 2.24554e-007 0.0149812 -8.97384e-005 -5.34441e-006 -7.6349e-007 3.04539e-007 2.24515e-007 -7.63497e-007 3.0451e-007 2.24554e-007 0.019027 -0.00119343 -6.57841e-005 -7.63487e-007 3.04546e-007 2.24511e-007 -7.63497e-007 3.0451e-007 2.24554e-007 0.0123143 -0.00326035 -0.000681122 -7.63487e-007 3.04528e-007 2.24543e-007 -7.63497e-007 3.0451e-007 2.24554e-007 3.18055e-015 -1.27222e-014 -3.18055e-015 -7.63498e-007 3.0451e-007 2.24554e-007 -45.6865 32.1676 -29.3549 -70.4102 38.8001 70.644 12.7907 13.9975 16.8785 1.81938e-006 -4.66813e-007 7.57688e-009 44.5616 32.3727 28.7447 70.9744 39.0966 -71.0377 -14.4176 13.5734 -15.6603 -7.15625e-015 1.59028e-015 3.18055e-015 
39.7366 37.0708 22.5106 -179.996 51.0054 8.95158e-011 -0.172495 -1.91258 0.135395 -0.34075 -3.82549 0.265248 -0.34075 -3.82549 0.265248 -2.56868e-006 15.9933 2.10841e-006 -1.38323e-007 20.4759 7.2074e-010 6.16072 1.44712 17.8843 -16.2809 57.9699 27.7974 32.0965 48.6369 -73.317 0.559472 -1.45496 8.28399 1.14666e-006 4.66739e-007 -3.21636e-007 1.52888e-006 6.22319e-007 -4.28847e-007 3.8222e-007 1.5558e-007 -1.07212e-007 1.14666e-006 4.66739e-007 -3.21636e-007 -0.0146166 -8.27253e-005 -2.14352e-007 3.82217e-007 1.55593e-007 -1.07192e-007 1.14666e-006 4.66739e-007 -3.21636e-007 -0.0187504 -0.00117398 5.73435e-005 3.82216e-007 1.55597e-007 -1.0719e-007 1.14666e-006 4.66739e-007 -3.21636e-007 -0.0122794 -0.00325115 0.000678562 3.82216e-007 1.55588e-007 -1.07206e-007 1.14666e-006 4.66739e-007 -3.21636e-007 1.52888e-006 6.22319e-007 -4.28847e-007 3.8222e-007 1.5558e-007 -1.07212e-007 -6.18127 1.45132 -17.9018 20.0248 56.9874 -32.3561 -32.116 48.6232 73.3074 -0.573336 -1.45399 -8.27714 7.63939e-007 -3.04403e-007 -2.23049e-007 7.63939e-007 -3.04403e-007 -2.23049e-007 1.52788e-006 -6.08807e-007 -4.46099e-007 7.63939e-007 -3.04403e-007 -2.23049e-007 0.0149809 -9.29412e-005 -6.28136e-006 1.10068e-006 -1.84506e-007 -2.26787e-006 7.63939e-007 -3.04403e-007 -2.23049e-007 0.0190216 -0.00119553 -5.79733e-005 1.10015e-006 -1.84446e-007 -2.26787e-006 7.63939e-007 -3.04403e-007 -2.23049e-007 0.0122522 -0.00324137 -0.000677131 1.52786e-006 -6.08842e-007 -4.46076e-007 7.63939e-007 -3.04403e-007 -2.23049e-007 7.63939e-007 -3.04403e-007 -2.23049e-007 1.52788e-006 -6.08807e-007 -4.46099e-007 -45.2142 32.3156 -29.1046 -70.4116 38.8003 70.6526 13.3669 13.9247 16.3142 -5.8003e-007 2.20582e-007 2.18301e-007 44.2265 32.4807 28.5418 70.9748 39.0967 -71.0432 -14.8256 13.5064 -15.2589 -5.27513e-007 -2.46174e-006 -4.26728e-007 
39.7368 37.0706 22.5107 -179.996 51.0054 8.95158e-011 -0.172263 -1.86742 0.135813 -0.340364 -3.73525 0.266216 -0.340364 -3.73522 0.266216 2.04733e-006 15.9933 -1.94302e-006 -7.41136e-008 19.611 1.25676e-007 6.16073 1.44716 17.8843 -16.2521 57.9766 27.7625 32.0965 48.6369 -73.317 0.559469 -1.45496 8.28398 -7.50558e-008 4.9638e-008 2.06593e-006 -1.14736e-006 -4.66518e-007 3.19299e-007 -3.82454e-007 -1.55506e-007 1.06433e-007 -7.50558e-008 4.9638e-008 2.06593e-006 -0.0146148 -8.52032e-005 4.53025e-006 -3.82451e-007 -1.55519e-007 1.06413e-007 -7.50558e-008 4.9638e-008 2.06593e-006 -0.0187526 -0.00117493 6.24963e-005 -7.26784e-008 4.94476e-008 2.06593e-006 -7.50558e-008 4.9638e-008 2.06593e-006 -0.012223 -0.00323078 0.000682422 -3.8245e-007 -1.55514e-007 1.06427e-007 -7.50558e-008 4.9638e-008 2.06593e-006 -1.14736e-006 -4.66518e-007 3.19299e-007 -3.82454e-007 -1.55506e-007 1.06433e-007 -6.18127 1.45137 -17.9018 20.0248 56.9874 -32.3561 -32.116 48.6231 73.3074 -0.573329 -1.45399 -8.27714 3.18239e-007 -9.23902e-007 -1.46463e-006 3.24338e-007 9.69584e-008 -2.03597e-006 7.64377e-007 -3.04296e-007 -2.21544e-007 3.18239e-007 -9.23902e-007 -1.46463e-006 0.0150101 -8.87191e-005 -5.09219e-006 7.64369e-007 -3.04325e-007 -2.21505e-007 3.18239e-007 -9.23902e-007 -1.46463e-006 0.01899 -0.00118927 -6.49485e-005 7.64365e-007 -3.04332e-007 -2.21502e-007 3.18239e-007 -9.23902e-007 -1.46463e-006 0.0122158 -0.00323324 -0.000678825 7.64366e-007 -3.04314e-007 -2.21533e-007 3.18239e-007 -9.23902e-007 -1.46463e-006 3.24338e-007 9.69584e-008 -2.03597e-006 7.64377e-007 -3.04296e-007 -2.21544e-007 -44.742 32.4654 -28.8554 -70.4129 38.8005 70.6612 13.942 13.8463 15.7511 -8.82781e-032 1.59028e-015 3.18055e-015 43.8916 32.5898 28.3394 70.9752 39.0967 -71.0488 -15.2331 13.4366 -14.8582 -1.75792e-007 -8.20558e-007 -1.42385e-007 
39.737 37.0705 22.5108 -179.996 51.0054 8.95158e-011 -0.172028 -1.82231 0.136228 -0.339977 -3.64497 0.267181 -0.339977 -3.645 0.267181 -1.65156e-005 15.993 9.12875e-006 -2.5342e-007 18.7464 6.45015e-008 6.16073 1.44714 17.8843 -16.2234 57.9833 27.7277 32.0965 48.6369 -73.317 0.559474 -1.45498 8.28397 1.22792e-006 -1.65026e-008 2.95583e-006 2.4073e-007 6.63309e-007 -1.32109e-006 1.75256e-006 -3.68948e-007 4.06561e-006 1.22792e-006 -1.65026e-008 2.95583e-006 -0.0145976 -8.72274e-005 -1.85331e-006 1.93286e-006 3.18838e-007 4.80193e-006 1.22792e-006 -1.65026e-008 2.95583e-006 -0.0187613 -0.00117677 5.31928e-005 1.74984e-006 -3.69788e-007 4.06554e-006 1.22792e-006 -1.65026e-008 2.95583e-006 -0.0122804 -0.00325278 0.000671347 1.61055e-006 1.38578e-007 2.85016e-006 1.22792e-006 -1.65026e-008 2.95583e-006 2.4073e-007 6.63309e-007 -1.32109e-006 1.75256e-006 -3.68948e-007 4.06561e-006 -6.18127 1.45136 -17.9018 20.0248 56.9874 -32.3561 -32.116 48.6231 73.3074 -0.573336 -1.45399 -8.27713 7.64811e-007 -3.04188e-007 -2.20039e-007 1.41428e-006 -1.13331e-006 -3.71936e-006 -7.64811e-007 3.04188e-007 2.20039e-007 7.64811e-007 -3.04188e-007 -2.20039e-007 0.0149911 -9.12181e-005 -2.76004e-006 -7.64804e-007 3.04217e-007 2.19999e-007 7.64811e-007 -3.04188e-007 -2.20039e-007 0.0189965 -0.00119114 -5.5788e-005 -7.648e-007 3.04223e-007 2.19996e-007 7.64811e-007 -3.04188e-007 -2.20039e-007 0.012232 -0.00323679 -0.000673114 -7.64801e-007 3.04205e-007 2.20027e-007 7.64811e-007 -3.04188e-007 -2.20039e-007 1.41428e-006 -1.13331e-006 -3.71936e-006 -7.64811e-007 3.04188e-007 2.20039e-007 -44.2698 32.6168 -28.6074 -70.4143 38.8008 70.67 14.516 13.7624 15.189 -1.09757e-006 -6.60057e-007 -1.06247e-006 43.5566 32.6998 28.1376 70.9756 39.0968 -71.0544 -15.6399 13.364 -14.4581 1.64108e-006 -3.51492e-007 -1.33365e-007 
39.7371 37.0704 22.511 -179.996 51.0054 8.95158e-011 -0.171795 -1.7772 0.136643 -0.339592 -3.55475 0.268145 -0.339592 -3.55477 0.268144 -2.99332e-006 15.9934 2.05335e-006 -1.88755e-007 17.8823 3.87793e-007 6.16072 1.4471 17.8844 -16.1946 57.9899 27.6929 32.0965 48.6369 -73.317 0.55947 -1.45497 8.28398 3.18055e-015 1.59028e-015 6.36111e-015 1.14875e-006 4.66073e-007 -3.14624e-007 -3.18055e-015 0 -6.36111e-015 3.18055e-015 1.59028e-015 6.36111e-015 -0.0146244 -8.75046e-005 2.93991e-006 3.18055e-015 -4.77083e-015 -6.36111e-015 3.18055e-015 1.59028e-015 6.36111e-015 -0.0187385 -0.00117344 6.74682e-005 -6.36111e-015 -1.59028e-015 6.36111e-015 3.18055e-015 1.59028e-015 6.36111e-015 -0.0122378 -0.00323578 0.00067582 8.82781e-032 1.59028e-015 -3.18055e-015 3.18055e-015 1.59028e-015 6.36111e-015 1.14875e-006 4.66073e-007 -3.14624e-007 -3.18055e-015 0 -6.36111e-015 -6.18127 1.45132 -17.9018 20.0248 56.9874 -32.3561 -32.116 48.6231 73.3074 -0.573329 -1.45398 -8.27713 7.65243e-007 -3.04078e-007 -2.18533e-007 6.56355e-007 -8.31297e-007 -3.49804e-006 7.65243e-007 -3.04078e-007 -2.18533e-007 7.65243e-007 -3.04078e-007 -2.18533e-007 0.0150263 -9.23275e-005 -5.32257e-006 7.65236e-007 -3.04107e-007 -2.18494e-007 7.65243e-007 -3.04078e-007 -2.18533e-007 0.0189914 -0.00119282 -5.73026e-005 7.65232e-007 -3.04114e-007 -2.1849e-007 7.65243e-007 -3.04078e-007 -2.18533e-007 0.012236 -0.00323781 -0.000671826 7.65233e-007 -3.04096e-007 -2.18522e-007 7.65243e-007 -3.04078e-007 -2.18533e-007 6.56355e-007 -8.31297e-007 -3.49804e-006 7.65243e-007 -3.04078e-007 -2.18533e-007 -43.7978 32.7699 -28.3605 -70.4157 38.8011 70.6788 15.0888 13.6729 14.6281 -1.76624e-007 8.20855e-007 -1.39919e-007 43.2219 32.8109 27.9363 70.976 39.0969 -71.06 -16.0459 13.2886 -14.0588 3.59127e-006 -1.67625e-007 1.51669e-006 
39.7373 37.0702 22.5111 -179.996 51.0054 8.95158e-011 -0.171562 -1.73219 0.137057 -0.339209 -3.46464 0.269107 -0.339209 -3.46464 0.269107 -1.66573e-005 15.9931 9.33944e-006 7.22104e-008 17.0186 -1.85547e-007 6.16073 1.44714 17.8843 -16.1657 57.9965 27.658 32.0965 48.6369 -73.317 0.559469 -1.45496 8.28398 -1.14943e-006 -4.65848e-007 3.12288e-007 -1.08296e-006 -9.52346e-007 3.58564e-006 -3.83145e-007 -1.55283e-007 1.04096e-007 -1.14943e-006 -4.65848e-007 3.12288e-007 -0.0146044 -8.76178e-005 2.30108e-006 -3.83142e-007 -1.55296e-007 1.04076e-007 -1.14943e-006 -4.65848e-007 3.12288e-007 -0.0187657 -0.00117372 7.05123e-005 -7.3245e-007 -2.86404e-007 -1.83208e-006 -1.14943e-006 -4.65848e-007 3.12288e-007 -0.0122975 -0.00325491 0.000685145 -7.31674e-007 -2.86764e-007 -1.83198e-006 -1.14943e-006 -4.65848e-007 3.12288e-007 -1.08296e-006 -9.52346e-007 3.58564e-006 -3.83145e-007 -1.55283e-007 1.04096e-007 -6.18127 1.45136 -17.9018 20.0248 56.9874 -32.3561 -32.116 48.6231 73.3074 -0.57333 -1.45399 -8.27713 1.63378e-006 -7.84376e-008 2.84566e-006 -2.39946e-006 3.82405e-007 -2.62863e-006 1.63378e-006 -7.84376e-008 2.84566e-006 1.63378e-006 -7.84376e-008 2.84566e-006 0.0149761 -8.84971e-005 -2.83331e-007 2.11971e-006 -4.09165e-007 4.63801e-006 1.63378e-006 -7.84376e-008 2.84566e-006 0.0190444 -0.00119689 -5.81401e-005 1.6336e-006 -7.79505e-008 2.84565e-006 1.63378e-006 -7.84376e-008 2.84566e-006 0.0123621 -0.00327192 -0.000683588 1.63373e-006 -7.80845e-008 2.84563e-006 1.63378e-006 -7.84376e-008 2.84566e-006 -2.39946e-006 3.82405e-007 -2.62863e-006 1.63378e-006 -7.84376e-008 2.84566e-006 -43.326 32.9247 -28.1147 -70.4171 38.8012 70.6876 15.6602 13.578 14.0686 -1.64158e-006 -3.52987e-007 1.32308e-007 42.8872 32.9228 27.7356 70.9763 39.0969 -71.0657 -16.4512 13.2104 -13.6602 -1.85866e-006 -1.57531e-006 1.48901e-006 
